<svg width="52" height="53" viewBox="0 0 52 53" fill="none" xmlns="http://www.w3.org/2000/svg">
<g clip-path="url(#clip0_413_3634)">
<path d="M31.2 11.1504H20.8C20.3216 11.1504 19.9333 11.5387 19.9333 12.0171V15.4837V18.9504C19.9333 19.4288 20.3216 19.8171 20.8 19.8171H31.2C31.6784 19.8171 32.0667 19.4288 32.0667 18.9504V15.4837V12.0171C32.0667 11.5387 31.6784 11.1504 31.2 11.1504ZM30.3333 18.0837H21.6667V16.3504H30.3333V18.0837ZM30.3333 14.6171H21.6667V12.8837H30.3333V14.6171Z" fill="#47BF6F"/>
<path d="M51.1333 23.2833H46.2046L35.5333 15.8959V8.55C35.5333 8.28653 35.4137 8.0378 35.2083 7.87313L33.8 6.74647V1.61667C33.8 1.13827 33.4117 0.75 32.9333 0.75H29.4667C28.9883 0.75 28.6 1.13827 28.6 1.61667V2.58733L26.5417 0.940667C26.2253 0.6876 25.7755 0.6876 25.4592 0.940667L16.7925 7.874C16.5863 8.0378 16.4667 8.28653 16.4667 8.55V15.8959L5.7954 23.2833H0.866667C0.388267 23.2833 0 23.6716 0 24.15V27.6167V31.0833C0 31.5617 0.388267 31.95 0.866667 31.95H11.2667C11.7451 31.95 12.1333 31.5617 12.1333 31.0833V27.6167V24.15C12.1333 23.6716 11.7451 23.2833 11.2667 23.2833H8.84087L16.4667 18.0045V22.4167C16.4667 22.8951 16.8549 23.2833 17.3333 23.2833H23.0412L8.30787 38.0167H4.33333C3.85493 38.0167 3.46667 38.4049 3.46667 38.8833V42.35V45.8167C3.46667 46.2951 3.85493 46.6833 4.33333 46.6833H14.7333C15.2117 46.6833 15.6 46.2951 15.6 45.8167V42.35V38.8833C15.6 38.4049 15.2117 38.0167 14.7333 38.0167H10.7588L25.1333 23.6421V44.0833H20.8C20.3216 44.0833 19.9333 44.4716 19.9333 44.95V48.4167V51.8833C19.9333 52.3617 20.3216 52.75 20.8 52.75H31.2C31.6784 52.75 32.0667 52.3617 32.0667 51.8833V48.4167V44.95C32.0667 44.4716 31.6784 44.0833 31.2 44.0833H26.8667V23.6421L41.2412 38.0167H37.2667C36.7883 38.0167 36.4 38.4049 36.4 38.8833V42.35V45.8167C36.4 46.2951 36.7883 46.6833 37.2667 46.6833H47.6667C48.1451 46.6833 48.5333 46.2951 48.5333 45.8167V42.35V38.8833C48.5333 38.4049 48.1451 38.0167 47.6667 38.0167H43.6921L28.9588 23.2833H34.6667C35.1451 23.2833 35.5333 22.8951 35.5333 22.4167V18.0045L43.1591 23.2833H40.7333C40.2549 23.2833 39.8667 23.6716 39.8667 24.15V27.6167V31.0833C39.8667 31.5617 40.2549 31.95 40.7333 31.95H51.1333C51.6117 31.95 52 31.5617 52 31.0833V27.6167V24.15C52 23.6716 51.6117 23.2833 51.1333 23.2833ZM10.4 30.2167H1.73333V28.4833H10.4V30.2167ZM10.4 25.0167V26.75H1.73333V25.0167H10.4ZM13.8667 44.95H5.2V43.2167H13.8667V44.95ZM13.8667 39.75V41.4833H5.2V39.75H13.8667ZM46.8 44.95H38.1333V43.2167H46.8V44.95ZM46.8 39.75V41.4833H38.1333V39.75H46.8ZM30.3333 51.0167H21.6667V49.2833H30.3333V51.0167ZM30.3333 45.8167V47.55H21.6667V45.8167H30.3333ZM33.8 21.55H18.2V8.966L26 2.726L28.925 5.066C29.185 5.274 29.5412 5.313 29.8419 5.17087C30.1427 5.027 30.3333 4.7228 30.3333 4.39V2.48333H32.0667V7.16333C32.0667 7.4268 32.1863 7.67553 32.3917 7.8402L33.8 8.966V21.55ZM50.2667 30.2167H41.6V28.4833H50.2667V30.2167ZM50.2667 26.75H41.6V25.0167H50.2667V26.75Z" fill="#47BF6F"/>
</g>
<defs>
<clipPath id="clip0_413_3634">
<rect width="52" height="52" fill="white" transform="translate(0 0.75)"/>
</clipPath>
</defs>
</svg>
