<svg width="52" height="53" viewBox="0 0 52 53" fill="none" xmlns="http://www.w3.org/2000/svg">
<g clip-path="url(#clip0_413_3641)">
<path d="M12.1334 36.2832C10.6976 36.2832 9.53345 37.4473 9.53345 38.8832C9.53345 40.3191 10.6975 41.4832 12.1334 41.4832C13.5694 41.4832 14.7334 40.3192 14.7334 38.8832C14.7318 37.4479 13.5687 36.2847 12.1334 36.2832ZM12.1334 39.7498C11.6548 39.7498 11.2668 39.3619 11.2668 38.8832C11.2668 38.4045 11.6548 38.0166 12.1334 38.0166C12.6121 38.0166 13.0001 38.4045 13.0001 38.8832C12.9996 39.3617 12.6119 39.7493 12.1334 39.7498Z" fill="#47BF6F"/>
<path d="M39.8666 36.2832C38.4307 36.2832 37.2666 37.4473 37.2666 38.8832C37.2666 40.3191 38.4307 41.4832 39.8666 41.4832C41.3025 41.4832 42.4666 40.3192 42.4666 38.8832C42.4651 37.4479 41.3019 36.2847 39.8666 36.2832ZM39.8666 39.7498C39.3879 39.7498 39 39.3619 39 38.8832C39 38.4045 39.388 38.0166 39.8666 38.0166C40.3453 38.0166 40.7332 38.4045 40.7332 38.8832C40.7328 39.3617 40.3451 39.7493 39.8666 39.7498Z" fill="#47BF6F"/>
<path d="M51.3394 23.9467L45.3693 17.2232C44.8747 16.6663 44.165 16.3483 43.4201 16.3498H35.5334V11.1498C35.5318 9.71452 34.3686 8.55133 32.9334 8.5498H2.6C1.16472 8.55133 0.00152352 9.71452 8.46389e-08 11.1498V33.6832C-0.000101478 33.913 0.0912032 34.1335 0.253805 34.2961C0.416305 34.4586 0.636797 34.5499 0.866735 34.5499H1.73337V37.1499C1.73489 38.5852 2.89809 39.7484 4.33337 39.7499H6.1359C6.56307 42.7338 9.11899 44.9499 12.1334 44.9499C15.1477 44.9499 17.7037 42.7338 18.1308 39.7499H33.8694C34.2965 42.7338 36.8525 44.9499 39.8668 44.9499C42.8812 44.9499 45.4371 42.7338 45.8643 39.7499H49.4C50.8353 39.7484 51.9985 38.5852 52 37.1499V25.675C51.9994 25.0373 51.7643 24.4222 51.3394 23.9467ZM1.73337 32.8164V11.1498C1.73387 10.6713 2.12154 10.2836 2.6 10.2832H32.9334C33.4118 10.2837 33.7996 10.6713 33.8 11.1498V32.8164H1.73337ZM6.1359 38.0164H4.33337C3.85491 38.0159 3.46714 37.6283 3.46673 37.1498V34.5498H7.89588C6.94383 35.4803 6.32521 36.6988 6.1359 38.0164ZM12.1334 43.2164C9.74015 43.2164 7.8 41.2763 7.8 38.8831C7.8 36.4899 9.74015 34.5498 12.1334 34.5498C14.5266 34.5498 16.4667 36.49 16.4667 38.8832C16.4639 41.2752 14.5254 43.2137 12.1334 43.2164ZM20.8 38.0164H18.1307C17.9414 36.6988 17.3229 35.4802 16.3709 34.5498H20.8V38.0164ZM28.6 38.0164H22.5334V34.5498H28.6V38.0164ZM33.8693 38.0164H30.3334V34.5498H35.6291C34.6771 35.4803 34.0586 36.6988 33.8693 38.0164ZM39.8666 43.2164C37.4734 43.2164 35.5333 41.2763 35.5333 38.8831C35.5333 36.4899 37.4733 34.5497 39.8666 34.5497C42.2598 34.5497 44.2 36.4899 44.2 38.8831C44.1972 41.2752 42.2587 43.2137 39.8666 43.2164ZM50.2666 37.1498C50.2661 37.6283 49.8785 38.016 49.4 38.0164H45.8641C45.432 35.0353 42.8791 32.8218 39.8666 32.8164H35.5333V18.0832H39V26.7498C39.0015 28.1851 40.1647 29.3483 41.6 29.3498H50.2666V37.1498ZM50.2666 27.6164H41.6C41.1215 27.6159 40.7338 27.2283 40.7334 26.7498V18.0832H43.4201C43.6689 18.0818 43.9064 18.1872 44.0722 18.3726L50.0445 25.0986C50.1867 25.257 50.2657 25.4621 50.2667 25.675V27.6164H50.2666Z" fill="#47BF6F"/>
</g>
<defs>
<clipPath id="clip0_413_3641">
<rect width="52" height="52" fill="white" transform="translate(0 0.75)"/>
</clipPath>
</defs>
</svg>
