<svg width="24" height="25" viewBox="0 0 24 25" fill="none" xmlns="http://www.w3.org/2000/svg">
<path fill-rule="evenodd" clip-rule="evenodd" d="M11.7769 13.9645C11.1079 13.9645 10.4409 13.7435 9.8829 13.3015L5.3979 9.6855C5.0749 9.4255 5.0249 8.9525 5.2839 8.6305C5.5449 8.3095 6.0169 8.2585 6.3389 8.5175L10.8199 12.1295C11.3829 12.5755 12.1759 12.5755 12.7429 12.1255L17.1789 8.5195C17.5009 8.2565 17.9729 8.3065 18.2349 8.6285C18.4959 8.9495 18.4469 9.4215 18.1259 9.6835L13.6819 13.2955C13.1199 13.7415 12.4479 13.9645 11.7769 13.9645Z" fill="#47BF6F"/>
<mask id="mask0_305_3822" style="mask-type:alpha" maskUnits="userSpaceOnUse" x="1" y="2" width="22" height="20">
<path fill-rule="evenodd" clip-rule="evenodd" d="M1 2.5H22.4999V22H1V2.5Z" fill="white"/>
</mask>
<g mask="url(#mask0_305_3822)">
<path fill-rule="evenodd" clip-rule="evenodd" d="M6.83889 20.5H16.6589C16.6609 20.498 16.6689 20.5 16.6749 20.5C17.8159 20.5 18.8279 20.092 19.6039 19.317C20.5049 18.42 20.9999 17.131 20.9999 15.688V8.82C20.9999 6.027 19.1739 4 16.6589 4H6.84089C4.32589 4 2.49989 6.027 2.49989 8.82V15.688C2.49989 17.131 2.99589 18.42 3.89589 19.317C4.67189 20.092 5.68489 20.5 6.82489 20.5H6.83889ZM6.82189 22C5.27889 22 3.90089 21.44 2.83689 20.38C1.65189 19.198 0.999893 17.532 0.999893 15.688V8.82C0.999893 5.217 3.51089 2.5 6.84089 2.5H16.6589C19.9889 2.5 22.4999 5.217 22.4999 8.82V15.688C22.4999 17.532 21.8479 19.198 20.6629 20.38C19.5999 21.439 18.2209 22 16.6749 22H16.6589H6.84089H6.82189Z" fill="#47BF6F"/>
</g>
</svg>
